<svg width="375" height="262" viewBox="0 0 375 262" fill="none" xmlns="http://www.w3.org/2000/svg">
<mask id="mask0_223_2544" style="mask-type:alpha" maskUnits="userSpaceOnUse" x="0" y="0" width="375" height="292">
<rect width="375" height="291.164" rx="30" fill="#26C1C1"/>
</mask>
<g mask="url(#mask0_223_2544)">
<g opacity="0.75">
<path d="M220.966 120.463C224.112 88.9292 248.053 66.9021 277.301 59.3594C281.81 58.1966 286.245 56.8655 290.424 55.3436C311.838 47.708 336.006 34.0269 348.781 26.3759C352.286 24.2768 357.13 27.7391 356.699 32.0632L336.974 229.74C334.777 251.752 315.475 265.711 293.86 260.919L247.967 250.745C226.353 245.954 210.612 224.225 212.808 202.214L220.966 120.463Z" fill="url(#paint0_linear_223_2544)" fill-opacity="0.7"/>
<path d="M417.875 45.5995C414.728 77.1333 390.788 99.1604 361.54 106.703C357.031 107.866 352.596 109.197 348.417 110.719C327.003 118.355 302.834 132.036 290.059 139.687C286.555 141.786 281.71 138.323 282.142 133.999L301.867 -63.6776C304.063 -85.6892 323.366 -99.6486 344.98 -94.857L390.873 -84.6829C412.488 -79.8912 428.229 -58.163 426.033 -36.1514L417.875 45.5995Z" fill="url(#paint1_linear_223_2544)" fill-opacity="0.7"/>
</g>
<g opacity="0.75">
<path d="M127.382 120.463C124.235 88.9292 100.295 66.9021 71.0464 59.3594C66.5375 58.1966 62.1027 56.8655 57.9235 55.3436C36.5095 47.708 12.3414 34.0269 -0.433677 26.3759C-3.9385 24.2768 -8.78292 27.7391 -8.35144 32.0632L11.3738 229.74C13.5702 251.752 32.8726 265.711 54.487 260.919L100.38 250.745C121.995 245.954 137.736 224.225 135.539 202.214L127.382 120.463Z" fill="url(#paint2_linear_223_2544)" fill-opacity="0.7"/>
<path d="M-69.5276 45.5995C-66.381 77.1333 -42.4402 99.1604 -13.1921 106.703C-8.68314 107.866 -4.24844 109.197 -0.0692116 110.719C21.3448 118.355 45.5129 132.036 58.288 139.687C61.7928 141.786 66.6372 138.323 66.2058 133.999L46.4805 -63.6776C44.2841 -85.6892 24.9817 -99.6486 3.36734 -94.857L-42.5259 -84.6829C-64.1402 -79.8912 -79.8815 -58.163 -77.6851 -36.1514L-69.5276 45.5995Z" fill="url(#paint3_linear_223_2544)" fill-opacity="0.7"/>
</g>
</g>
<defs>
<linearGradient id="paint0_linear_223_2544" x1="360.136" y1="-141.495" x2="208.526" y2="213.672" gradientUnits="userSpaceOnUse">
<stop stop-color="white" stop-opacity="0.5"/>
<stop offset="1" stop-color="white" stop-opacity="0"/>
</linearGradient>
<linearGradient id="paint1_linear_223_2544" x1="278.704" y1="307.558" x2="420.266" y2="-19.4585" gradientUnits="userSpaceOnUse">
<stop stop-color="white" stop-opacity="0.5"/>
<stop offset="1" stop-color="white" stop-opacity="0"/>
</linearGradient>
<linearGradient id="paint2_linear_223_2544" x1="-11.789" y1="-141.495" x2="139.822" y2="213.672" gradientUnits="userSpaceOnUse">
<stop stop-color="white" stop-opacity="0.5"/>
<stop offset="1" stop-color="white" stop-opacity="0"/>
</linearGradient>
<linearGradient id="paint3_linear_223_2544" x1="69.6433" y1="307.558" x2="-71.9189" y2="-19.4585" gradientUnits="userSpaceOnUse">
<stop stop-color="white" stop-opacity="0.5"/>
<stop offset="1" stop-color="white" stop-opacity="0"/>
</linearGradient>
</defs>
</svg>
