<svg preserveAspectRatio="none" width="100%" height="100%" overflow="visible" style="display: block;" viewBox="0 0 23 23" fill="none" xmlns="http://www.w3.org/2000/svg">
<g id="Vector">
<path d="M19.6667 10.3333C20.2855 10.3333 20.879 10.5792 21.3166 11.0168C21.7542 11.4543 22 12.0478 22 12.6667V19.6667C22 20.2855 21.7542 20.879 21.3166 21.3166C20.879 21.7542 20.2855 22 19.6667 22H3.33333C2.71449 22 2.121 21.7542 1.68342 21.3166C1.24583 20.879 1 20.2855 1 19.6667V12.6667C1 12.0478 1.24583 11.4543 1.68342 11.0168C2.121 10.5792 2.71449 10.3333 3.33333 10.3333H19.6667ZM5.66667 5.66667V3.33333C5.66667 2.71449 5.9125 2.121 6.35008 1.68342C6.78767 1.24583 7.38116 1 8 1H15C15.6188 1 16.2123 1.24583 16.6499 1.68342C17.0875 2.121 17.3333 2.71449 17.3333 3.33333V5.66667H5.66667ZM17.3333 5.66667H5.66667Z" fill="var(--fill-0, #29BFC0)" fill-opacity="0.2"/>
<path d="M19.6667 10.3333H3.33333M19.6667 10.3333C20.2855 10.3333 20.879 10.5792 21.3166 11.0168C21.7542 11.4543 22 12.0478 22 12.6667V19.6667C22 20.2855 21.7542 20.879 21.3166 21.3166C20.879 21.7542 20.2855 22 19.6667 22H3.33333C2.71449 22 2.121 21.7542 1.68342 21.3166C1.24583 20.879 1 20.2855 1 19.6667V12.6667C1 12.0478 1.24583 11.4543 1.68342 11.0168C2.121 10.5792 2.71449 10.3333 3.33333 10.3333M19.6667 10.3333V8C19.6667 7.38116 19.4208 6.78767 18.9832 6.35008C18.5457 5.9125 17.9522 5.66667 17.3333 5.66667M3.33333 10.3333V8C3.33333 7.38116 3.57917 6.78767 4.01675 6.35008C4.45434 5.9125 5.04783 5.66667 5.66667 5.66667M17.3333 5.66667V3.33333C17.3333 2.71449 17.0875 2.121 16.6499 1.68342C16.2123 1.24583 15.6188 1 15 1H8C7.38116 1 6.78767 1.24583 6.35008 1.68342C5.9125 2.121 5.66667 2.71449 5.66667 3.33333V5.66667M17.3333 5.66667H5.66667" stroke="var(--stroke-0, #29BFC0)" stroke-width="2" stroke-linecap="round" stroke-linejoin="round"/>
</g>
</svg>
