<svg width="84" height="84" viewBox="0 0 84 84" fill="none" xmlns="http://www.w3.org/2000/svg">
<path d="M42 38.5C42 50.8095 38.4685 62.2965 32.3645 71.9985M20.3245 64.8585L20.5135 64.5435C25.4223 56.7453 28.0183 47.7146 28 38.5C28 34.787 29.475 31.226 32.1005 28.6005C34.726 25.975 38.287 24.5 42 24.5C45.713 24.5 49.274 25.975 51.8995 28.6005C54.525 31.226 56 34.787 56 38.5C56 42.0595 55.755 45.5665 55.2895 49M66.535 63.462C68.7925 55.531 70 47.1555 70 38.5C70.0011 33.5844 68.7081 28.7552 66.2511 24.4978C63.794 20.2404 60.2594 16.7048 56.0027 14.2466C51.746 11.7883 46.9171 10.494 42.0016 10.4937C37.086 10.4934 32.257 11.7872 28 14.245M10.5 53.774C12.74 49.1575 14 43.974 14 38.5C14 33.4005 15.365 28.6195 17.745 24.5M47.8765 72.954C50.0368 68.6437 51.7852 64.1391 53.0985 59.5L47.8765 72.954Z" stroke="#29BFC0" stroke-width="5" stroke-linecap="round" stroke-linejoin="round"/>
</svg>
