<svg width="23" height="23" viewBox="0 0 23 23" fill="none" xmlns="http://www.w3.org/2000/svg">
<g clip-path="url(#clip0_77_69)">
<path d="M6.79268 4.55327C7.52142 4.55327 8.11228 3.96236 8.11228 3.23326V1.15627C8.11233 0.427584 7.52142 -0.16333 6.79268 -0.16333C6.06363 -0.16333 5.47272 0.427584 5.47272 1.15627V3.23326C5.47272 3.96241 6.06363 4.55327 6.79268 4.55327Z" fill="#28C0C1"/>
<path d="M16.5254 4.55327C17.2541 4.55327 17.845 3.96236 17.845 3.23326V1.15627C17.845 0.427584 17.2541 -0.16333 16.5254 -0.16333C15.7963 -0.16333 15.2054 0.427584 15.2054 1.15627V3.23326C15.2054 3.96241 15.7963 4.55327 16.5254 4.55327Z" fill="#28C0C1"/>
<path d="M19.8216 1.71777H19.0049V3.23333C19.0049 4.60095 17.8926 5.71325 16.5254 5.71325C15.1578 5.71325 14.0455 4.60095 14.0455 3.23333V1.71777H9.27221V3.23333C9.27221 4.60095 8.15991 5.71325 6.7927 5.71325C5.42512 5.71325 4.31282 4.60095 4.31282 3.23333V1.71777H3.49615C1.74082 1.71777 0.317749 3.14084 0.317749 4.89618V19.9851C0.317749 21.7404 1.74082 23.1635 3.49615 23.1635H19.8216C21.5769 23.1635 23 21.7404 23 19.9851V4.89618C23 3.14084 21.5769 1.71777 19.8216 1.71777ZM20.4986 19.427C20.4986 20.2392 19.8379 20.8999 19.0257 20.8999H4.29204C3.47994 20.8999 2.81918 20.2392 2.81918 19.427V7.62185H20.4986V19.427Z" fill="#28C0C1"/>
</g>
<defs>
<clipPath id="clip0_77_69">
<rect width="23" height="23" fill="white"/>
</clipPath>
</defs>
</svg>
