<svg preserveAspectRatio="none" width="100%" height="100%" overflow="visible" style="display: block;" viewBox="0 0 25 20" fill="none" xmlns="http://www.w3.org/2000/svg">
<path id="Vector" d="M22.9057 3.95205C21.7491 3.95205 20.8114 4.8897 20.8114 6.04634C20.8114 6.59717 21.0289 7.09385 21.376 7.46768L17.6224 11.1771L13.0416 4.10845C13.9343 3.86811 14.5942 3.06167 14.5942 2.09351C14.5942 0.937647 13.6566 0 12.5 0C11.3433 0 10.4057 0.937647 10.4057 2.09351C10.4057 3.06167 11.0656 3.86811 11.9583 4.10845L7.37754 11.1771L3.62388 7.46768C3.971 7.09385 4.18848 6.59717 4.18848 6.04634C4.18848 4.8897 3.25083 3.95205 2.09419 3.95205C0.937549 3.95205 0 4.8897 0 6.04634C0 7.20298 0.937646 8.14063 2.09429 8.14063V19.7785H12.5H22.9057V8.14063C24.0624 8.14063 25 7.20298 25 6.04634C25 4.8897 24.0624 3.95205 22.9057 3.95205Z" fill="#969FAB"/>
</svg>
