<svg preserveAspectRatio="none" width="100%" height="100%" overflow="visible" style="display: block;" viewBox="0 0 26 32" fill="none" xmlns="http://www.w3.org/2000/svg">
<path id="Vector" d="M19.3333 7.66667C19.3333 9.43478 18.631 11.1305 17.3807 12.3807C16.1305 13.631 14.4348 14.3333 12.6667 14.3333C10.8986 14.3333 9.20286 13.631 7.95262 12.3807C6.70238 11.1305 6 9.43478 6 7.66667C6 5.89856 6.70238 4.20286 7.95262 2.95262C9.20286 1.70238 10.8986 1 12.6667 1C14.4348 1 16.1305 1.70238 17.3807 2.95262C18.631 4.20286 19.3333 5.89856 19.3333 7.66667V7.66667ZM12.6667 19.3333C9.57248 19.3333 6.60501 20.5625 4.41709 22.7504C2.22916 24.9383 1 27.9058 1 31H24.3333C24.3333 27.9058 23.1042 24.9383 20.9162 22.7504C18.7283 20.5625 15.7609 19.3333 12.6667 19.3333V19.3333Z" stroke="var(--stroke-0, #29BFC0)" stroke-width="1.5" stroke-linecap="round" stroke-linejoin="round"/>
</svg>
