<svg preserveAspectRatio="none" width="100%" height="100%" overflow="visible" style="display: block;" viewBox="0 0 25 22" fill="none" xmlns="http://www.w3.org/2000/svg">
<g id="Group">
<path id="Vector" d="M3.83989 4.04478C4.95708 4.04478 5.86216 3.13897 5.86216 2.02261C5.86216 0.90508 4.95708 0 3.83989 0C2.72236 0 1.81733 0.90508 1.81733 2.02261C1.81728 3.13897 2.72236 4.04478 3.83989 4.04478Z" fill="#969FAB"/>
<path id="Vector_2" d="M12.4857 9.40598V9.409C12.4906 9.409 12.4951 9.40749 12.5 9.40749C12.505 9.40749 12.5095 9.409 12.5144 9.409V9.40598C13.2742 9.3905 13.8856 8.77238 13.8856 8.00944C13.8856 7.24538 13.2742 6.62765 12.5144 6.61217V6.6091C12.5095 6.6091 12.5049 6.61061 12.5 6.61061C12.4951 6.61061 12.4906 6.6091 12.4857 6.6091V6.61217C11.7258 6.62765 11.1145 7.24538 11.1145 8.00944C11.1144 8.77238 11.7258 9.3905 12.4857 9.40598Z" fill="#969FAB"/>
<path id="Vector_3" d="M21.1602 4.04478C22.2777 4.04478 23.1828 3.13897 23.1828 2.02261C23.1828 0.90508 22.2777 0 21.1602 0C20.043 0 19.1379 0.90508 19.1379 2.02261C19.1379 3.13897 20.043 4.04478 21.1602 4.04478Z" fill="#969FAB"/>
<path id="Vector_4" d="M22.954 5.00279H21.181H20.2823C19.2517 5.00279 18.3081 5.58048 17.8393 6.49801L16.2038 11.2816C16.1475 11.3912 16.0428 11.4691 15.921 11.4906C15.7993 11.5122 15.6745 11.4756 15.5834 11.3912L14.566 10.5104C14.2617 10.2287 13.8625 10.0722 13.4478 10.0722H12.5H11.5523C11.1375 10.0722 10.7384 10.2287 10.434 10.5104L9.41667 11.3912C9.32556 11.4756 9.2008 11.5122 9.07907 11.4906C8.95739 11.4691 8.85265 11.3912 8.79631 11.2816L7.16081 6.49801C6.69205 5.58048 5.7484 5.00279 4.71783 5.00279H3.8191H2.046C1.06612 5.00279 0 6.06891 0 7.04923V13.8467C0 14.3366 0.396973 14.7339 0.886916 14.7339C1.12808 14.7339 0.886916 14.7339 1.50616 14.7339L1.84336 20.531C1.84336 21.0523 2.26641 21.475 2.7877 21.475C3.00772 21.475 3.41339 21.475 3.81905 21.475C4.22472 21.475 4.63038 21.475 4.8504 21.475C5.37169 21.475 5.79474 21.0523 5.79474 20.531L6.13195 14.7339L6.1278 10.5949C6.1278 10.5296 6.17242 10.4732 6.23629 10.4573C6.30021 10.4422 6.36559 10.4724 6.39547 10.5307L7.69293 13.7241C7.84948 14.0296 8.13981 14.2443 8.4778 14.3044C8.81579 14.3645 9.16247 14.2632 9.41462 14.0303L10.6561 13.1158C10.6977 13.0777 10.7578 13.0678 10.8093 13.0894C10.8611 13.1125 10.8944 13.1635 10.8944 13.2194L10.8989 16.8087L11.1322 20.8217C11.1322 21.1824 11.4252 21.475 11.7862 21.475C11.9382 21.475 12.2191 21.475 12.5 21.475C12.7809 21.475 13.0618 21.475 13.2137 21.475C13.5748 21.475 13.8678 21.1824 13.8678 20.8217L14.1011 16.8087L14.1056 13.2194C14.1056 13.1635 14.1388 13.1125 14.1907 13.0894C14.2421 13.0678 14.3022 13.0777 14.3438 13.1158L15.5853 14.0303C15.8375 14.2632 16.1842 14.3645 16.5222 14.3044C16.8601 14.2443 17.1505 14.0296 17.307 13.7241L18.6045 10.5307C18.6343 10.4725 18.6997 10.4422 18.7636 10.4573C18.8275 10.4732 18.8721 10.5295 18.8721 10.5949L18.868 14.7339L19.2052 20.531C19.2052 21.0523 19.6282 21.475 20.1496 21.475C20.3696 21.475 20.7752 21.475 21.1809 21.475C21.5866 21.475 21.9922 21.475 22.2122 21.475C22.7335 21.475 23.1566 21.0523 23.1566 20.531L23.4938 14.7339C24.1131 14.7339 23.8719 14.7339 24.1131 14.7339C24.603 14.7339 25 14.3366 25 13.8467V7.04923C25 6.06891 23.9339 5.00279 22.954 5.00279Z" fill="#969FAB"/>
</g>
</svg>
