<svg preserveAspectRatio="none" width="100%" height="100%" overflow="visible" style="display: block;" viewBox="0 0 22 13" fill="none" xmlns="http://www.w3.org/2000/svg">
<path id="Vector" d="M20.5535 1.76813C19.8413 1.05418 18.846 0.610048 17.7574 0.610048C17.6407 0.610048 17.3272 0.610048 16.9636 0.610048V0H0V5.63521C0 8.41387 1.22537 10.9038 3.16313 12.6011H13.8002C15.0832 11.4774 16.0508 10.0053 16.5603 8.33247C16.9388 8.45259 17.3413 8.5189 17.7574 8.51855C18.8459 8.5189 19.8413 8.07432 20.5535 7.36042C21.2675 6.64803 21.7122 5.65269 21.7116 4.56433C21.7122 3.47592 21.2677 2.48057 20.5535 1.76813ZM19.0533 5.85957C18.718 6.19364 18.2669 6.39681 17.7574 6.39681C17.4634 6.39681 17.1892 6.32665 16.9448 6.20531C16.9562 6.01616 16.9635 5.827 16.9635 5.63516V2.73169C17.3271 2.73169 17.6407 2.73169 17.7573 2.73169C18.2668 2.73286 18.718 2.93476 19.0532 3.26889C19.3865 3.60375 19.5895 4.05491 19.5898 4.56423C19.5896 5.07355 19.3866 5.52549 19.0533 5.85957Z" fill="#969FAB"/>
</svg>
