<svg preserveAspectRatio="xMidYMid meet" width="100%" height="100%" overflow="visible" style="display: block;" viewBox="0 0 21 25" fill="none" xmlns="http://www.w3.org/2000/svg">
<g id="Group">
<path id="Vector" d="M7.40957 22.4267C7.66528 23.9179 8.94854 25 10.4608 25C11.9735 25 13.2572 23.9179 13.5129 22.4267L13.5285 22.3358H7.39395L7.40957 22.4267Z" fill="#969FAB"/>
<path id="Vector_2" d="M20.9 18.1631C20.6497 17.9127 20.3946 17.701 20.1479 17.496C19.1102 16.6343 18.2139 15.8902 18.2139 12.8003V10.3495C18.2139 6.74556 15.6818 3.58325 12.1783 2.79038C12.3187 2.51499 12.3899 2.22554 12.3899 1.92832C12.3899 0.865137 11.5247 0 10.4611 0C9.39785 0 8.53281 0.865137 8.53281 1.92832C8.53281 2.22573 8.60391 2.51514 8.74443 2.79038C5.24077 3.58325 2.70879 6.74556 2.70879 10.3495V12.8003C2.70879 15.8902 1.8125 16.6344 0.774805 17.496C0.528125 17.7009 0.273047 17.9127 0.0227539 18.1631L0 18.1858V20.6174H20.9227V18.1858L20.9 18.1631Z" fill="#969FAB"/>
</g>
</svg>
