<svg preserveAspectRatio="none" width="100%" height="100%" overflow="visible" style="display: block;" viewBox="0 0 185 148" fill="none" xmlns="http://www.w3.org/2000/svg">
<g id="Mask Group">
<mask id="mask0_0_4" style="mask-type:alpha" maskUnits="userSpaceOnUse" x="0" y="0" width="185" height="148">
<path id="Union" d="M73.9971 0C90.5051 5.82945e-05 105.75 5.40607 118.06 14.5439L159.563 5.14941C172.172 2.29523 184.171 11.8807 184.171 24.8086V113.106C184.171 124.836 174.194 134.089 162.497 133.206L122.172 130.162C109.227 141.276 92.3968 147.993 73.9971 147.993C33.1299 147.993 0.000144333 114.864 0 73.9971C0 33.1298 33.1298 0 73.9971 0Z" fill="var(--fill-0, #29BFC0)"/>
</mask>
<g mask="url(#mask0_0_4)">
<path id="Rectangle 41" d="M-5.99438 59.9738C-5.99438 49.9009 1.44156 41.3743 11.4208 40.0043L161.271 19.4312C173.38 17.7688 184.169 27.1786 184.169 39.4007V106.58C184.169 118.074 174.573 127.241 163.091 126.716L13.241 119.858C2.47822 119.366 -5.99438 110.496 -5.99438 99.7224V59.9738Z" fill="var(--fill-0, #29BFC0)"/>
</g>
</g>
</svg>
